# xmcd
#
# Track frame offsets:
#	225
#	16242
#	29413
#	43742
#	59007
#	72738
#	85660
#	103219
#	119351
#	136073
#	148142
#	162882
#	180240
#	198584
#
# Disc length: 2818 seconds
#
# Revision: 1
# Processed by: cddbd v1.5PL3 Copyright (c) Steve Scherf et al.
# Submitted via: audiograbber 1.82.02
#
DISCID=cb0aff0e
DTITLE=Kolibris, Die - Rutsch' ein bißchen rüber zu mir
DYEAR=1996
DGENRE=Kölsch - Karneval
TTITLE0=Rutsch' ein bißchen rüber zu mir
TTITLE1=Immer wenn de Musik spillt
TTITLE2=Rock around the Dom
TTITLE3=Willemännche
TTITLE4=Wo sind denn hier die Alpen?
TTITLE5=Wer soll das bezahlen?
TTITLE6=Schötzefess en Budapess
TTITLE7=Du häs mir mi Hätz jeklaut
TTITLE8=Em Dunkle, em Helle
TTITLE9=Jeder kritt jenoch
TTITLE10=Kölle Alaaf
TTITLE11=Oh Susanne
TTITLE12=Bei d'r Mamm doheim
TTITLE13=Hey, Kölle am Rhing
EXTD=
EXTT0=
EXTT1=
EXTT2=
EXTT3=
EXTT4=
EXTT5=
EXTT6=
EXTT7=
EXTT8=
EXTT9=
EXTT10=
EXTT11=
EXTT12=
EXTT13=
PLAYORDER=
